<svg width="24" height="24" viewBox="0 0 24 24" fill="none" xmlns="http://www.w3.org/2000/svg">
<path d="M12.4473 2C11.4146 2 10.6315 2.75195 10.6315 3.7449C10.6315 4.7426 11.4048 5.50419 12.4321 5.50419C13.4646 5.50419 14.2579 4.75712 14.2579 3.77381C14.2579 2.75677 13.4846 2 12.4473 2Z"  />
<path d="M14.3776 8.07332C15.0927 8.12947 15.8816 8.02481 16.6925 7.9172C16.9962 7.87692 17.3028 7.83625 17.6099 7.80342C18.1386 7.74559 18.6573 7.63952 19.1911 7.63952C19.6399 7.63952 20.044 7.98177 20.0838 8.39147C20.1337 8.89755 19.8295 9.33135 19.3406 9.40369C19.0451 9.44758 18.7488 9.48156 18.452 9.51548L18.1822 9.54664L18.0018 9.5683C17.7976 9.59348 17.5937 9.62104 17.3902 9.65432C16.1484 9.85195 14.8963 9.86641 13.6393 9.84231C13.4348 9.83749 13.3701 9.90977 13.4099 10.0978C13.4798 10.4496 13.5247 10.8112 13.6144 11.163C13.6891 11.4667 13.5794 11.6788 13.3451 11.8523C12.8842 12.1967 12.3417 12.3136 11.791 12.4323L11.709 12.45C11.1952 12.5608 10.8661 12.4258 10.6066 11.9776C10.4021 11.6209 10.3623 11.6402 10.1928 12.0161C9.988 12.4741 9.77864 12.9272 9.57903 13.385C9.47448 13.626 9.31983 13.8092 9.08527 13.9394C8.68036 14.1712 8.27788 14.4055 7.8754 14.6397C7.47482 14.873 7.07423 15.1063 6.67121 15.3372C6.19236 15.6119 5.64362 15.4914 5.35923 15.0528C5.08487 14.6334 5.23464 14.0888 5.7135 13.8044C6.3768 13.4091 7.05013 13.0235 7.72345 12.6379C7.88325 12.5464 7.98807 12.4307 8.05768 12.2668C8.38703 11.5149 8.73128 10.7629 9.06035 10.011C9.19009 9.71215 9.39458 9.5097 9.70389 9.38442C10.6965 8.97953 11.6889 8.56501 12.6816 8.15048C12.7395 8.12626 12.7972 8.10782 12.8557 8.09426C12.9039 8.08302 12.9527 8.07518 13.0023 8.07024C13.0478 8.06574 13.0938 8.06368 13.1407 8.06368C13.4278 8.07505 13.7089 8.07448 14.0697 8.07371L14.3776 8.07332Z"  />
<path d="M18.2036 21.5551C17.7096 21.5744 17.2258 21.4972 16.7619 21.3286C16.7408 21.3214 16.7202 21.3151 16.6999 21.3104C16.6747 21.3045 16.6503 21.3009 16.6262 21.3007C16.6005 21.3006 16.5753 21.3045 16.5501 21.3136C16.5403 21.3173 16.5306 21.3217 16.5208 21.3271C16.5081 21.3341 16.4954 21.3425 16.4826 21.3526C16.0087 21.7383 15.4353 21.9165 14.8367 21.9648C14.0984 22.0274 13.36 22.0178 12.6569 21.7334C12.4722 21.6611 12.2826 21.584 12.1331 21.4538C11.9885 21.3286 11.8788 21.343 11.719 21.4346C10.3723 22.2058 9.02541 22.1865 7.69366 21.3864C7.51924 21.2803 7.38462 21.2658 7.18989 21.3382C5.87818 21.8298 4.40179 21.4731 3.55377 20.4609C3.20952 20.0415 3.00503 19.5547 3.00016 19.0004C2.99501 18.6775 3.11473 18.5232 3.45383 18.4751C4.42671 18.3353 5.3744 18.0991 6.27713 17.7135C8.06283 16.9567 9.52431 15.8192 10.6017 14.2382C10.6949 14.1003 10.7797 13.9574 10.8539 13.8096C10.9067 13.7043 10.9544 13.5966 10.9958 13.4862C11.0557 13.3223 11.1554 13.2742 11.33 13.2693C12.0234 13.2308 12.6967 13.1247 13.3202 12.8066C13.5347 12.6957 13.7344 12.5705 13.9088 12.4066C14.0085 12.3101 14.0783 12.3149 14.1731 12.4258C15.2806 13.708 16.4128 14.966 17.5701 16.2047C18.5974 17.3086 19.6499 18.3931 20.7823 19.3957C21.0218 19.6077 21.0667 19.8054 20.902 20.1091C20.4031 21.0152 19.6001 21.4683 18.5576 21.5503C18.4926 21.5555 18.4289 21.5564 18.3653 21.5562L18.2654 21.5554L18.2036 21.5551Z"  />
<path d="M8.85099 8.54085C7.8234 8.54085 7.04038 7.78408 7.04038 6.7912C7.04038 5.78379 7.81852 5.03666 8.86589 5.03666C9.8886 5.03666 10.6667 5.79825 10.6667 6.79601C10.6616 7.78408 9.87858 8.54085 8.85099 8.54085Z"  />
<path d="M14.5271 10.6809C14.4375 10.6809 14.3925 10.7243 14.4074 10.8207C14.4188 10.8739 14.428 10.9275 14.4367 10.9812L14.4505 11.0702C14.4916 11.3431 14.5328 11.616 14.7468 11.8522C15.1614 12.3083 15.5699 12.7691 15.9783 13.2301L15.9954 13.2498L16.426 13.7356L16.7083 14.0526L16.8916 14.2574C16.9856 14.3628 17.0799 14.4679 17.1747 14.5727L17.3369 14.7517C17.5658 15.0032 17.7965 15.253 18.0289 15.501C18.0419 15.5156 18.0554 15.5337 18.0695 15.5525C18.0896 15.5794 18.1107 15.6078 18.1334 15.6299C18.1681 15.6636 18.206 15.6828 18.2483 15.6601C18.3014 15.6344 18.3106 15.5828 18.3033 15.5256C18.3006 15.5039 18.2954 15.4814 18.2892 15.4592C18.2832 15.4378 18.2765 15.4166 18.27 15.3967L18.2632 15.3757C18.2491 15.3292 18.2361 15.2827 18.2231 15.2364C18.1906 15.1196 18.1586 15.0042 18.1085 14.8936C18.0349 14.734 17.9658 14.5724 17.8992 14.4099C17.829 14.2394 17.7616 14.0678 17.6941 13.8962L17.6925 13.892C17.4249 13.2119 17.1576 12.5324 16.7269 11.9197C16.4975 11.5967 16.5024 11.2063 16.4975 10.8255L16.4965 10.7816C16.4956 10.6793 16.4946 10.5683 16.338 10.5893C15.7394 10.6617 15.1357 10.6906 14.5271 10.6809Z"  />
<path d="M14.2479 7.23945C14.0846 7.25185 13.9077 7.246 13.723 7.2399C13.4058 7.22936 13.0659 7.21806 12.7317 7.29727C12.4763 7.3558 12.2396 7.45969 12.0028 7.56358C11.8693 7.62217 11.736 7.6807 11.5993 7.73107C11.5245 7.75998 11.4397 7.83226 11.3699 7.76962C11.3401 7.74476 11.3284 7.71379 11.3271 7.68C11.3252 7.62879 11.3468 7.57129 11.365 7.51899C11.5394 7.02737 11.8736 6.69476 12.4075 6.58387C13.4947 6.36215 14.5821 6.15007 15.6744 5.93799C16.5024 5.77409 17.2009 6.11152 17.5701 6.83938C17.6497 6.99358 17.5351 7.00321 17.4404 7.01285C17.2074 7.04401 16.9742 7.07151 16.7413 7.09901L16.7356 7.09978C16.5016 7.12747 16.2676 7.15516 16.0336 7.18638C15.9022 7.2045 15.7709 7.21729 15.639 7.22532C15.4905 7.23431 15.3413 7.2372 15.1907 7.23463C14.9063 7.23463 14.6271 7.23945 14.2479 7.23945Z"  />
<path d="M17.3653 11.11C17.3702 11.645 17.7543 12.0162 18.3081 12.0114C18.4934 12.0085 18.6627 11.9588 18.8106 11.8675C18.9092 11.8066 18.9983 11.7271 19.0763 11.6306C19.3235 11.3118 19.462 10.9469 19.6009 10.5795C19.6301 10.5025 19.6594 10.4253 19.6897 10.3485C19.7496 10.1942 19.6846 10.1749 19.54 10.1942C19.3024 10.2283 19.066 10.2592 18.8295 10.2889C18.5646 10.3221 18.3 10.3539 18.0338 10.387C17.6963 10.4281 17.5278 10.4486 17.4444 10.5393C17.3615 10.6297 17.3629 10.79 17.3653 11.11Z"  />
</svg>
