<svg width="24" height="24" viewBox="0 0 24 24" fill="none" xmlns="http://www.w3.org/2000/svg">
<path d="M7.8499 17.07C7.0299 17.17 3.4999 17.67 4.0599 20.26C4.6899 23.3 9.8699 22.59 9.8299 19C9.8099 16.57 9.8299 9.2 9.8299 9.2C9.8299 9.2 9.7599 8.53 10.4299 8.39L18.1899 6.79C18.1899 6.79 18.8299 6.65 18.8299 7.29C18.8299 7.89 18.8299 14.2 18.8299 14.2C18.8299 14.2 18.8999 14.83 18.1199 15C17.3399 15.12 13.9099 15.4 14.1899 18C14.4999 21.07 19.9999 20.65 19.9999 17.07V2.61C19.9999 2.61 20.0399 1.62 18.8999 1.87L9.4999 3.78C9.4999 3.78 8.6599 3.96 8.6599 4.77C8.6599 5.5 8.6599 16.11 8.6599 16.11C8.6599 16.11 8.6599 16.96 7.8499 17.07Z"  />
</svg>
