<svg width="24" height="24" viewBox="0 0 24 24" fill="none" xmlns="http://www.w3.org/2000/svg">
<path fill-rule="evenodd" clip-rule="evenodd" d="M5.33325 12.7134C5.88554 12.7134 6.33325 13.1611 6.33325 13.7134V19.7104C6.33325 20.2627 5.88554 20.7104 5.33325 20.7104C4.78097 20.7104 4.33325 20.2627 4.33325 19.7104V13.7134C4.33325 13.1611 4.78097 12.7134 5.33325 12.7134Z"  />
<path fill-rule="evenodd" clip-rule="evenodd" d="M5.33325 3.28961C5.88554 3.28961 6.33325 3.73733 6.33325 4.28961V10.2866C6.33325 10.8389 5.88554 11.2866 5.33325 11.2866C4.78097 11.2866 4.33325 10.8389 4.33325 10.2866V4.28961C4.33325 3.73733 4.78097 3.28961 5.33325 3.28961Z"  />
<path fill-rule="evenodd" clip-rule="evenodd" d="M11.9999 11C12.5522 11 12.9999 11.4477 12.9999 12V19.7104C12.9999 20.2627 12.5522 20.7104 11.9999 20.7104C11.4476 20.7104 10.9999 20.2627 10.9999 19.7104V12C10.9999 11.4477 11.4476 11 11.9999 11Z"  />
<path fill-rule="evenodd" clip-rule="evenodd" d="M11.9999 3.28961C12.5522 3.28961 12.9999 3.73733 12.9999 4.28961V8.57316C12.9999 9.12545 12.5522 9.57316 11.9999 9.57316C11.4476 9.57316 10.9999 9.12545 10.9999 8.57316V4.28961C10.9999 3.73733 11.4476 3.28961 11.9999 3.28961Z"  />
<path fill-rule="evenodd" clip-rule="evenodd" d="M18.6666 14.4268C19.2189 14.4268 19.6666 14.8746 19.6666 15.4268V19.7104C19.6666 20.2627 19.2189 20.7104 18.6666 20.7104C18.1143 20.7104 17.6666 20.2627 17.6666 19.7104V15.4268C17.6666 14.8746 18.1143 14.4268 18.6666 14.4268Z"  />
<path fill-rule="evenodd" clip-rule="evenodd" d="M18.6666 3.28961C19.2189 3.28961 19.6666 3.73733 19.6666 4.28961V12C19.6666 12.5523 19.2189 13 18.6666 13C18.1143 13 17.6666 12.5523 17.6666 12V4.28961C17.6666 3.73733 18.1143 3.28961 18.6666 3.28961Z"  />
<path fill-rule="evenodd" clip-rule="evenodd" d="M1.83325 13.7134C1.83325 13.1611 2.28097 12.7134 2.83325 12.7134H7.83325C8.38554 12.7134 8.83325 13.1611 8.83325 13.7134C8.83325 14.2657 8.38554 14.7134 7.83325 14.7134H2.83325C2.28097 14.7134 1.83325 14.2657 1.83325 13.7134Z"  />
<path fill-rule="evenodd" clip-rule="evenodd" d="M8.49992 8.57316C8.49992 8.02088 8.94763 7.57316 9.49992 7.57316H14.4999C15.0522 7.57316 15.4999 8.02088 15.4999 8.57316C15.4999 9.12545 15.0522 9.57316 14.4999 9.57316H9.49992C8.94763 9.57316 8.49992 9.12545 8.49992 8.57316Z"  />
<path fill-rule="evenodd" clip-rule="evenodd" d="M15.1666 15.4268C15.1666 14.8746 15.6143 14.4268 16.1666 14.4268H21.1666C21.7189 14.4268 22.1666 14.8746 22.1666 15.4268C22.1666 15.9791 21.7189 16.4268 21.1666 16.4268H16.1666C15.6143 16.4268 15.1666 15.9791 15.1666 15.4268Z"  />
</svg>
