<svg width="24" height="24" viewBox="0 0 24 24" fill="none" xmlns="http://www.w3.org/2000/svg">
<path fill-rule="evenodd" clip-rule="evenodd" d="M14.9651 14.255H15.7551L20.7451 19.255L19.2551 20.745L14.2551 15.755V14.965L13.9851 14.685C12.8451 15.665 11.3651 16.255 9.75513 16.255C6.16513 16.255 3.25513 13.345 3.25513 9.755C3.25513 6.165 6.16513 3.255 9.75513 3.255C13.3451 3.255 16.2551 6.165 16.2551 9.755C16.2551 11.365 15.6651 12.845 14.6851 13.985L14.9651 14.255ZM5.25513 9.755C5.25513 12.245 7.26513 14.255 9.75513 14.255C12.2451 14.255 14.2551 12.245 14.2551 9.755C14.2551 7.26501 12.2451 5.255 9.75513 5.255C7.26513 5.255 5.25513 7.26501 5.25513 9.755Z"  />
</svg>
