<svg id="Layer_1" data-name="Layer 1" xmlns="http://www.w3.org/2000/svg" xmlns:xlink="http://www.w3.org/1999/xlink" viewBox="0 0 89.29 28"><defs><style>.cls-1{fill:none;}.cls-2{fill:#4d4d4d;}.cls-3{clip-path:url(#clip-path);}.cls-4{fill:#fff;}</style><clipPath id="clip-path"><rect class="cls-1" x="8.17" y="7" width="72.95" height="14"/></clipPath></defs><title>accurat-svg</title><rect class="cls-2" width="89.29" height="28"/><g class="cls-3"><path class="cls-4" d="M39,15.22a2.39,2.39,0,0,1-2.54,2.15,2.78,2.78,0,0,1-2.8-3.06,2.81,2.81,0,0,1,2.78-3.07A2.35,2.35,0,0,1,39,13.38l0,.22,2.6-.6,0-.2a5,5,0,0,0-5.15-4,5.3,5.3,0,0,0-3.84,1.56,5.54,5.54,0,0,0-1.56,4,5.58,5.58,0,0,0,1.56,4,5.37,5.37,0,0,0,3.86,1.55,5,5,0,0,0,5.15-4l0-.19L39,15Zm11.35-.69c0,1.82-.91,2.82-2.56,2.82a2,2,0,0,1-2.21-2.23V9.06H42.92v6.26c0,2.63,1.64,4.39,4.1,4.39A3.49,3.49,0,0,0,50.37,18v1.58H53V9.06H50.33Zm7.45-4.16V9.06H55.2V19.55h2.64v-6a1.81,1.81,0,0,1,2-2h1.82V9h-1.3A2.6,2.6,0,0,0,57.78,10.37ZM12.57,17.58c-1.05,0-1.68-.44-1.68-1.16,0-.39.16-.94,1.56-1.1l3-.32C15.49,16.59,14.37,17.58,12.57,17.58Zm.87-8.8a5.64,5.64,0,0,0-5,2.84l-.11.18,2.24,1.27.09-.2a2.82,2.82,0,0,1,2.74-1.73c1.34,0,2.13.64,2.13,1.72V13l-3.67.38c-2.32.24-3.65,1.4-3.65,3.19,0,2,1.58,3.31,3.93,3.31a3.64,3.64,0,0,0,3.41-1.61v1.33h2.6V12.92C18.11,10.41,16.28,8.78,13.44,8.78Zm67.68,2.64V9.06H78.28V5.83H75.64V9.06H73v2.36h2.66v6.1a2,2,0,0,0,2,2h2.88V17.19H78.62c-.22,0-.34-.06-.34-.38V11.42Zm-53.54,3.8A2.39,2.39,0,0,1,25,17.37a2.78,2.78,0,0,1-2.8-3.06A2.81,2.81,0,0,1,25,11.24a2.35,2.35,0,0,1,2.54,2.14l0,.22,2.61-.6,0-.2a5,5,0,0,0-5.16-4,5.32,5.32,0,0,0-3.84,1.56,5.58,5.58,0,0,0-1.56,4,5.62,5.62,0,0,0,1.56,4A5.38,5.38,0,0,0,25,19.83a5,5,0,0,0,5.16-4l0-.19L27.62,15Zm39,2.36c-1.06,0-1.69-.44-1.69-1.16,0-.39.16-.94,1.56-1.1l3-.32C69.53,16.59,68.41,17.58,66.61,17.58Zm.87-8.8a5.65,5.65,0,0,0-5.05,2.84l-.11.18,2.24,1.27.1-.2a2.82,2.82,0,0,1,2.74-1.73c1.33,0,2.13.64,2.13,1.72V13l-3.68.38c-2.32.24-3.65,1.4-3.65,3.19,0,2,1.58,3.31,3.94,3.31a3.67,3.67,0,0,0,3.41-1.61v1.33h2.6V12.92C72.15,10.41,70.31,8.78,67.48,8.78Z"/></g></svg>