<svg id="Layer_1" data-name="Layer 1" xmlns="http://www.w3.org/2000/svg" xmlns:xlink="http://www.w3.org/1999/xlink" viewBox="0 0 89.29 28"><defs><style>.cls-1{fill:none;}.cls-2{clip-path:url(#clip-path);}.cls-3{fill:#6eb85a;}.cls-4{fill:#fff;}</style><clipPath id="clip-path"><rect class="cls-1" width="89.29" height="28"/></clipPath></defs><title>codelex-svg</title><g class="cls-2"><path class="cls-3" d="M89.29,0H0V28H89.29Z"/><path class="cls-4" d="M12.46,20.19a4.29,4.29,0,0,1-2.41-.7A4.18,4.18,0,0,1,8.61,18a4.13,4.13,0,0,1-.24-.53,2.67,2.67,0,0,1-.18-.66A21.4,21.4,0,0,1,8.05,14a17,17,0,0,1,.14-2.8A4.54,4.54,0,0,1,8.61,10,3.89,3.89,0,0,1,10.05,8.5a4.14,4.14,0,0,1,2.41-.7,4.22,4.22,0,0,1,2.9,1,4.57,4.57,0,0,1,1.4,2.59l0,.18H14.63l0-.11a2.37,2.37,0,0,0-.78-1.15,2.27,2.27,0,0,0-3.11.35,1.88,1.88,0,0,0-.45.94A16.4,16.4,0,0,0,10.15,14a11.85,11.85,0,0,0,.14,2.34,2,2,0,0,0,.42.95,1.93,1.93,0,0,0,.7.56,2,2,0,0,0,1.05.24,2.22,2.22,0,0,0,2.14-1.54l0-.07H16.8l0,.18a4.56,4.56,0,0,1-1.53,2.62A4.45,4.45,0,0,1,12.46,20.19Z"/><path class="cls-4" d="M23.31,20.19a4.29,4.29,0,0,1-2.41-.7A4.18,4.18,0,0,1,19.46,18a4.13,4.13,0,0,1-.24-.53A3.29,3.29,0,0,1,19,16.8,21.4,21.4,0,0,1,18.9,14,17,17,0,0,1,19,11.2,4.54,4.54,0,0,1,19.46,10,3.89,3.89,0,0,1,20.9,8.5a4.14,4.14,0,0,1,2.41-.7A4.23,4.23,0,0,1,27.16,10a2.65,2.65,0,0,1,.42,1.19,23.33,23.33,0,0,1,.11,2.8,23.69,23.69,0,0,1-.11,2.8,3,3,0,0,1-.45,1.23,4,4,0,0,1-1.4,1.5A4.54,4.54,0,0,1,23.31,20.19Zm0-10.29a2.28,2.28,0,0,0-1,.25,2.19,2.19,0,0,0-.7.56,2,2,0,0,0-.46.94A12,12,0,0,0,21,14a11.85,11.85,0,0,0,.14,2.34,2,2,0,0,0,.42.95,1.93,1.93,0,0,0,.7.56,2.42,2.42,0,0,0,2.1,0,1.56,1.56,0,0,0,.67-.56,2,2,0,0,0,.45-.95A16.23,16.23,0,0,0,25.59,14a17.22,17.22,0,0,0-.11-2.38,1.7,1.7,0,0,0-.45-.91,2.42,2.42,0,0,0-.7-.6A2.2,2.2,0,0,0,23.31,9.9Z"/><path class="cls-4" d="M30,20.09V7.91h4.3A4.15,4.15,0,0,1,38.05,10a3.83,3.83,0,0,1,.56,1.47,21.58,21.58,0,0,1,.1,2.56,15.22,15.22,0,0,1-.14,2.69,1.85,1.85,0,0,1-.21.7A5,5,0,0,1,38,18a4.24,4.24,0,0,1-1.5,1.44,4.55,4.55,0,0,1-2.35.59H30Zm4.09-2a2.32,2.32,0,0,0,2.1-1,1.83,1.83,0,0,0,.35-.91c0-.39.07-1.12.07-2.17s0-1.79-.07-2.21a2,2,0,0,0-.42-1A2.12,2.12,0,0,0,34.2,9.9H32.1v8.23Z"/><path class="cls-4" d="M41,20.09V7.91h7.91v2H43.12V13h4.94v1.89H43.12v3.22h5.81v2Z"/><path class="cls-4" d="M51.35,20.09V7.91h2.09V18.13h5.78v2Z"/><path class="cls-4" d="M61.67,20.09V7.91h7.88v2H63.74V13h5v1.89h-5v3.22h5.81v2Z"/><path class="cls-4" d="M79,20.09l-2.62-4.31-2.52,4.31H71.44l3.74-6.23-3.5-5.95H74l2.31,4,2.31-4H81l-3.5,5.95,3.75,6.23Z"/></g></svg>